<svg width="28" height="22" viewBox="0 0 28 22" fill="none" xmlns="http://www.w3.org/2000/svg">
<path d="M0.226875 21.3826C0.482625 21.7676 0.913 22 1.375 22H22C22.55 22 23.0478 21.6727 23.2636 21.1667L27.3886 11.5417C27.479 11.3327 27.5159 11.1044 27.496 10.8774C27.4762 10.6505 27.4001 10.4321 27.2747 10.2419C27.1493 10.0518 26.9786 9.89579 26.7779 9.78808C26.5772 9.68038 26.3528 9.62433 26.125 9.625H24.75V5.5C24.75 3.98337 23.5166 2.75 22 2.75H12.8494L9.33488 0H2.75C1.23338 0 0 1.23337 0 2.75V20.625H0.00962496C0.00656024 20.8933 0.0820799 21.1567 0.226875 21.3826ZM22 5.5V9.625H5.5C4.95 9.625 4.45225 9.95225 4.23638 10.4583L2.75 13.9274V5.5H22Z" fill="black"/>
</svg>
