<svg width="22" height="22" viewBox="0 0 22 22" fill="none" xmlns="http://www.w3.org/2000/svg">
<path d="M0.424344 17.7844L0.0116452 20.6698C-0.0138598 20.8489 0.00266317 21.0315 0.0599066 21.2031C0.11715 21.3747 0.213543 21.5306 0.341459 21.6585C0.469376 21.7865 0.625305 21.8828 0.79691 21.9401C0.968516 21.9973 1.15109 22.0139 1.33018 21.9884L4.21557 21.5757C4.65275 21.5139 5.74862 18.5714 5.74862 18.5714C5.74862 18.5714 6.29888 19.0435 6.52389 19.1146C7.0042 19.2662 7.47169 18.7952 7.62908 18.3172L8.08025 16.2514C8.08025 16.2514 8.75292 16.5918 8.99658 16.6419C9.30669 16.706 9.60747 16.5149 9.82081 16.3003C9.94897 16.1726 10.0452 16.0164 10.1018 15.8445L10.4119 13.9198C10.4119 13.9198 11.1988 14.1378 11.4681 14.1692C11.7747 14.2042 12.0732 14.048 12.2923 13.8277L13.619 12.5021C14.7421 12.866 15.9437 12.913 17.0917 12.6377C18.2397 12.3625 19.2895 11.7758 20.1255 10.9423C21.3259 9.73873 22 8.10826 22 6.40841C22 4.70855 21.3259 3.07808 20.1255 1.87455C18.9219 0.674129 17.2914 0 15.5916 0C13.8917 0 12.2613 0.674129 11.0577 1.87455C10.224 2.71035 9.63711 3.76012 9.36187 4.90817C9.08664 6.05621 9.1337 7.25796 9.49788 8.38096L0.753103 17.1246C0.574609 17.3029 0.459179 17.5346 0.424344 17.7844ZM17.9943 4.00566C18.6304 4.64356 18.9875 5.50761 18.9875 6.40841C18.9875 7.3092 18.6304 8.17325 17.9943 8.81115L13.1889 4.00566C13.8267 3.36964 14.6908 3.01249 15.5916 3.01249C16.4924 3.01249 17.3564 3.36964 17.9943 4.00566Z" fill="black"/>
</svg>
