<svg width="18" height="18" viewBox="0 0 18 18" fill="none" xmlns="http://www.w3.org/2000/svg">
<path d="M16.0746 14.1426C15.6323 13.719 15.2019 13.2832 14.7838 12.8357C14.4325 12.4788 14.221 12.2191 14.221 12.2191L11.577 10.9566C12.6355 9.75603 13.2197 8.21057 13.22 6.61001C13.22 2.96601 10.255 0 6.61001 0C2.96506 0 0 2.96601 0 6.61001C0 10.254 2.96506 13.22 6.61001 13.22C8.27479 13.22 9.79226 12.5968 10.9566 11.5779L12.2191 14.2219C12.2191 14.2219 12.4788 14.4334 12.8357 14.7847C13.2011 15.1275 13.6818 15.5911 14.1426 16.0755L15.4249 17.39L15.9953 18L17.9981 15.9972L17.3881 15.4268C17.0302 15.0755 16.5524 14.6091 16.0746 14.1426ZM6.61001 11.3314C4.00661 11.3314 1.88857 9.21341 1.88857 6.61001C1.88857 4.00661 4.00661 1.88857 6.61001 1.88857C9.21341 1.88857 11.3314 4.00661 11.3314 6.61001C11.3314 9.21341 9.21341 11.3314 6.61001 11.3314Z" fill="#C5C5C5"/>
</svg>
