<svg width="174" height="50" viewBox="0 0 174 50" fill="none" xmlns="http://www.w3.org/2000/svg">
<path d="M136.208 24.671L136.332 49.383L141.189 49.506L146.006 49.6289V24.794V-1.14441e-05H141.066H136.126L136.208 24.671Z" fill="black"/>
<path d="M157.121 6.92593C157.121 7.13084 156.545 8.8111 155.845 10.6143C154.61 13.8928 154.528 13.9748 151.934 15.4911L149.299 17.0075V19.1385V21.3105H151.564H153.828V29.9987C153.828 43.1538 154.651 46.3094 158.644 48.6454C161.156 50.1207 166.26 50.4076 170.871 49.4241L174 48.7274V45.039C174 41.4736 173.959 41.3506 173.135 41.5965C171.406 42.1703 167.989 42.4571 166.59 42.1703C163.79 41.5965 163.708 41.1867 163.708 30.6954V21.3105H168.648H173.588V17.6222V13.9338H168.648H163.708V10.2455V6.5571H160.415C158.603 6.5571 157.121 6.72103 157.121 6.92593Z" fill="black"/>
<path d="M112.866 13.4011C110.19 13.7289 106.485 14.6715 104.509 15.5321L102.574 16.3517L104.18 19.6303L105.826 22.8678L108.626 21.8433C111.796 20.6958 116.983 20.163 118.712 20.8597C120.276 21.4335 121.511 23.6055 121.511 25.6546V27.3349L116.283 27.5807C104.715 28.0725 99.9392 30.9822 99.4041 37.8672C98.9924 42.744 101.01 46.8832 104.797 48.8913C106.238 49.6699 107.144 49.7929 110.808 49.7929C115.912 49.7929 117.806 49.1372 120.605 46.3094C121.552 45.3259 122.417 44.6292 122.499 44.7111C122.54 44.7931 123.034 45.9406 123.528 47.211L124.475 49.588H127.769H131.021L130.897 35.3263L130.774 21.1056L129.621 19.1385C128.221 16.7616 125.834 14.9584 122.993 14.1387C120.77 13.483 115.254 13.0732 112.866 13.4011ZM121.511 35.3673C121.511 38.4819 120.194 40.9408 117.806 42.0883C113.154 44.4652 108.543 42.1703 109.325 37.9491C109.943 34.7116 112.66 33.2772 118.341 33.2362L121.511 33.1953V35.3673Z" fill="black"/>
<path d="M64.0412 14.6306C64.1647 15.0404 67.2523 23.0318 70.8339 32.3757L77.3795 49.3831H82.402H87.4244L94.1759 31.8019C97.881 22.1302 100.927 14.1798 100.927 14.0978C100.927 14.0158 98.6632 13.9339 95.8638 13.9339H90.8413L87.0127 25.3678C84.9132 31.638 83.1018 37.7033 82.9371 38.8508C82.649 41.3917 82.1961 41.3097 81.8668 38.6459C81.7021 37.5394 79.8907 31.556 77.7912 25.3268L73.9626 13.9339H68.899C64.247 13.9339 63.8353 13.9748 64.0412 14.6306Z" fill="black"/>
<path d="M10.5659 10.9728C10.0628 11.5095 7.44644 15.6687 4.83012 20.2305C1.1069 26.7042 0.0335425 28.8509 0 29.8237C0 30.8635 0.570223 32.1381 2.95174 36.2638C4.56178 39.115 6.10474 41.6307 6.30599 41.8654C6.64142 42.2009 8.11729 39.1485 13.6518 26.7713C17.4421 18.218 20.6622 10.9728 20.7964 10.6374C20.9976 10.1007 20.6287 10.0671 16.2681 10.0671C11.5722 10.0671 11.5386 10.0671 10.5659 10.9728Z" fill="black"/>
<path d="M20.3268 29.723C10.2976 52.3642 10.8008 49.8821 16.3017 49.9492H32.552C34.5135 49.9492 36.2939 48.8022 37.1048 47.016L43.9195 32.0049C44.5715 30.5688 44.5089 28.9114 43.7465 27.5307C41.0657 22.6759 34.8207 11.405 34.3476 10.9056C33.8445 10.4361 33.1066 10.2348 31.3959 10.1342L29.0814 10L20.3268 29.723Z" fill="black"/>
</svg>
