<svg width="69" height="62" viewBox="0 0 69 62" fill="none" xmlns="http://www.w3.org/2000/svg">
<path d="M16.1343 2.06584C15.366 2.88536 11.3709 9.23665 7.37569 16.2026C1.69026 26.0881 0.0512201 29.3662 0 30.8515C0 32.4394 0.870742 34.3857 4.50737 40.6858C6.96593 45.0395 9.32206 48.881 9.62938 49.2395C10.1416 49.7518 12.3953 45.0907 20.8466 26.1905C26.6345 13.1294 31.5516 2.06584 31.7565 1.55364C32.0638 0.734116 31.5004 0.682896 24.8417 0.682896C17.6709 0.682896 17.6197 0.682896 16.1343 2.06584Z" fill="url(#paint0_linear_12_3)"/>
<path d="M31.0394 30.6978C15.7246 65.2714 16.4929 61.4811 24.893 61.5835H48.1838C52.1069 61.5835 55.6677 59.2896 57.2894 55.7173L66.5759 35.2616C67.8798 32.3893 67.7531 29.0715 66.2275 26.3107C61.8813 18.4456 53.1399 2.69217 52.4494 1.96334C51.6811 1.24626 50.5542 0.938942 47.942 0.785282L44.4078 0.580406L31.0394 30.6978Z" fill="url(#paint1_linear_12_3)"/>
<defs>
<linearGradient id="paint0_linear_12_3" x1="34.5736" y1="46.0127" x2="8.83547" y2="5.10062" gradientUnits="userSpaceOnUse">
<stop stop-color="#C2CBCD"/>
<stop offset="0.0001" stop-color="#00E0FF"/>
<stop offset="0.395" stop-color="#7D67FF"/>
<stop offset="0.991666" stop-color="#F4BBC3"/>
</linearGradient>
<linearGradient id="paint1_linear_12_3" x1="68.763" y1="61.7628" x2="25.7381" y2="7.59756" gradientUnits="userSpaceOnUse">
<stop offset="0.0624022" stop-color="#00E0FF"/>
<stop offset="0.630805" stop-color="#7D67FF"/>
<stop offset="1" stop-color="#EDB6C6"/>
</linearGradient>
</defs>
</svg>
